<svg width="339" height="332" viewBox="0 0 339 332" fill="none" xmlns="http://www.w3.org/2000/svg">
<path d="M120.651 69.6756C115.581 69.6756 111.47 65.6501 111.47 60.6844V34.2023C111.47 29.2366 115.581 25.2112 120.651 25.2112C125.722 25.2112 129.832 29.2366 129.832 34.2023V60.6857C129.832 65.6501 125.722 69.6756 120.651 69.6756Z" fill="#2D527C"/>
<path d="M180.351 93.894C178.001 93.894 175.652 93.0167 173.859 91.2607C170.274 87.7494 170.274 82.0562 173.859 78.5443L179.632 72.8912C183.218 69.3799 189.029 69.3799 192.616 72.8912C196.201 76.4025 196.201 82.0957 192.616 85.6077L186.844 91.2607C185.05 93.016 182.702 93.894 180.351 93.894Z" fill="#2D527C"/>
<path d="M55.1787 216.482C52.8295 216.482 50.4797 215.605 48.6867 213.849C45.1014 210.337 45.1007 204.644 48.6867 201.133L54.459 195.479C58.0443 191.968 63.8576 191.967 67.4429 195.479C71.0282 198.991 71.0288 204.684 67.4429 208.195L61.6706 213.849C59.8783 215.604 57.5278 216.482 55.1787 216.482Z" fill="#2D527C"/>
<path d="M60.9509 93.894C58.6018 93.894 56.2513 93.0167 54.4589 91.2607L48.6867 85.6077C45.1014 82.0964 45.1014 76.4031 48.6867 72.8912C52.272 69.3793 58.0853 69.3799 61.6713 72.8912L67.4435 78.5443C71.0288 82.0555 71.0288 87.7488 67.4435 91.2607C65.6505 93.016 63.3001 93.894 60.9509 93.894Z" fill="#2D527C"/>
<path d="M36.2225 152.361H9.18078C4.11036 152.361 5.72205e-06 148.336 5.72205e-06 143.37C5.72205e-06 138.404 4.11036 134.378 9.18078 134.378H36.2225C41.293 134.378 45.4033 138.404 45.4033 143.37C45.404 148.336 41.2936 152.361 36.2225 152.361Z" fill="#2D527C"/>
<path d="M206.211 306.789H109.79C82.3423 306.789 60.0114 284.919 60.0114 258.038C60.0114 253.072 64.1217 249.046 69.1922 249.046C74.2626 249.046 78.3729 253.072 78.3729 258.038C78.3729 275.003 92.4665 288.806 109.789 288.806H206.21C211.28 288.806 215.391 292.832 215.391 297.798C215.391 302.763 211.281 306.789 206.211 306.789Z" fill="#2D527C"/>
<path d="M98.877 196.603C99.5067 194.7 100.234 192.843 101.05 191.03C101.584 189.846 102.155 188.684 102.764 187.542C103.367 186.409 103.994 185.291 104.669 184.203C107.189 180.14 110.196 176.399 113.609 173.057C124.53 162.361 139.62 155.744 156.287 155.744C157.319 155.744 158.345 155.77 159.364 155.82C159.91 155.847 160.447 155.899 160.989 155.939C161.457 155.975 161.928 155.998 162.392 156.044C163.148 156.118 163.896 156.219 164.643 156.321C164.883 156.353 165.127 156.376 165.366 156.411C166.242 156.541 167.11 156.695 167.973 156.862C168.078 156.882 168.184 156.896 168.288 156.917C169.235 157.103 170.173 157.315 171.104 157.545C171.123 157.55 171.14 157.553 171.159 157.557C173.111 158.042 175.027 158.618 176.898 159.285C182.602 139.884 177.658 118.115 162.049 102.829C139.186 80.4377 102.117 80.4377 79.2542 102.829C56.391 125.22 56.391 161.523 79.2542 183.914C85.0377 189.578 91.7336 193.804 98.877 196.603Z" fill="#CEE8FA"/>
<path d="M311.886 214.638C314.266 207.322 315.467 199.712 315.467 191.915C315.467 150.491 281.056 116.79 238.758 116.79C219.717 116.79 201.719 123.693 187.904 135.671C186.159 121.075 179.494 107.199 168.539 96.4703C155.747 83.9425 138.74 77.0432 120.649 77.0432C102.558 77.0432 85.5508 83.9425 72.7596 96.4703C59.9683 108.998 52.9229 125.654 52.9229 143.371C52.9229 161.087 59.9677 177.744 72.7596 190.272C77.3467 194.765 82.4899 198.52 88.0946 201.526C87.218 205.839 86.7486 210.293 86.7486 214.854C86.7486 216.996 86.8585 219.206 87.0763 221.424C87.5603 226.368 92.0468 229.989 97.0927 229.516C102.141 229.041 105.838 224.65 105.354 219.706C105.193 218.057 105.111 216.425 105.111 214.854C105.111 209.18 106.093 203.729 107.876 198.64C108.032 198.194 108.189 197.747 108.358 197.301C108.495 196.943 108.643 196.589 108.788 196.236C108.954 195.832 109.119 195.429 109.295 195.03C116.494 178.724 132.285 166.874 151.05 164.998C151.102 164.992 151.155 164.99 151.207 164.985C152.003 164.908 152.802 164.846 153.607 164.806C153.974 164.788 154.343 164.787 154.71 164.776C155.215 164.761 155.719 164.739 156.227 164.739C157.089 164.739 157.956 164.76 158.824 164.801C158.844 164.802 158.865 164.802 158.886 164.803C159.048 164.811 159.208 164.828 159.37 164.838C160.076 164.879 160.778 164.926 161.475 164.996C161.548 165.003 161.62 165.014 161.694 165.022C161.952 165.049 162.204 165.084 162.459 165.116C162.986 165.178 163.515 165.235 164.037 165.313C164.087 165.32 164.137 165.331 164.187 165.339C164.295 165.355 164.399 165.376 164.507 165.394C165.196 165.504 165.882 165.618 166.561 165.755C166.628 165.769 166.694 165.785 166.761 165.799C167.526 165.955 168.286 166.125 169.039 166.315C169.091 166.329 169.143 166.345 169.195 166.357C169.96 166.552 170.72 166.763 171.471 166.991C171.509 167.003 171.545 167.017 171.582 167.027C192.351 173.412 207.459 192.438 207.459 214.856C207.459 219.822 211.57 223.848 216.639 223.848C221.709 223.848 225.82 219.822 225.82 214.856C225.82 190.368 212.548 168.863 192.684 156.862C203.643 143.058 220.574 134.777 238.757 134.777C270.93 134.777 297.104 160.41 297.104 191.919C297.104 200.287 295.286 208.367 291.7 215.934C290.563 218.332 290.562 221.098 291.696 223.497C292.829 225.896 294.984 227.684 297.587 228.386C311.156 232.05 320.634 244.245 320.634 258.041C320.634 275.006 306.54 288.81 289.216 288.81H261.155C256.085 288.81 251.974 292.835 251.974 297.801C251.974 302.767 256.085 306.792 261.155 306.792H289.216C316.664 306.792 338.995 284.922 338.995 258.041C338.999 239.533 328.237 222.847 311.886 214.638ZM71.2864 143.37C71.2864 130.456 76.421 118.316 85.7455 109.185C95.0686 100.054 107.465 95.0249 120.65 95.0249C133.836 95.0249 146.232 100.054 155.555 109.185C166.086 119.497 171.182 133.803 169.779 148.043C169.75 148.038 169.719 148.033 169.689 148.027C169.09 147.912 168.489 147.802 167.886 147.702C167.553 147.647 167.232 147.595 166.919 147.548C166.886 147.543 166.853 147.538 166.82 147.533C166.795 147.529 166.768 147.525 166.744 147.521C166.685 147.512 166.624 147.505 166.565 147.498C165.521 147.346 164.475 147.214 163.421 147.108C163.392 147.106 163.362 147.103 163.332 147.101C163.327 147.1 163.322 147.099 163.316 147.099C163.242 147.092 163.167 147.088 163.093 147.081C162.169 146.992 161.24 146.925 160.309 146.873C160.24 146.869 160.17 146.862 160.099 146.859C160.009 146.854 159.921 146.845 159.831 146.84C159.829 146.84 159.828 146.84 159.826 146.84C159.711 146.835 159.596 146.836 159.48 146.831C158.418 146.784 157.354 146.752 156.284 146.752C155.097 146.752 153.917 146.782 152.741 146.84C152.572 146.848 152.406 146.867 152.238 146.876C151.219 146.932 150.203 147.003 149.194 147.103C149.161 147.107 149.13 147.111 149.097 147.115C133.24 148.699 118.539 155.51 107.114 166.698C103.173 170.559 99.7087 174.878 96.8199 179.535C96.1114 180.678 95.4136 181.898 94.623 183.38C94.478 183.652 94.335 183.925 94.1933 184.2C91.1569 182.31 88.3323 180.09 85.7428 177.554C76.4217 168.423 71.2864 156.283 71.2864 143.37Z" fill="#2D527C"/>
</svg>
