<svg width="270" height="266" viewBox="0 0 270 266" fill="none" xmlns="http://www.w3.org/2000/svg">
<g clip-path="url(#clip0_10_132)">
<path d="M171.167 237.357H82.2404C59.6452 237.357 41.2618 219.247 41.2618 196.985C41.2618 192.759 44.7397 189.333 49.0296 189.333C53.3196 189.333 56.7975 192.759 56.7975 196.985C56.7975 210.808 68.2114 222.051 82.2404 222.051H171.167C175.457 222.051 178.934 225.477 178.934 229.704C178.934 233.931 175.457 237.357 171.167 237.357Z" fill="#2D527C"/>
<path d="M70.9046 161.478C70.9046 161.467 70.904 161.458 70.904 161.447C70.904 134.583 93.0094 112.805 120.278 112.805C126.995 112.805 133.396 114.132 139.233 116.525C147.284 102.002 161.856 91.499 179.071 88.8229C179.205 87.3718 179.291 85.9073 179.291 84.4224C179.291 57.842 157.419 36.2943 130.439 36.2943C111.93 36.2943 95.8254 46.4377 87.5371 61.3888C82.3754 59.2723 76.7143 58.0991 70.7743 58.0991C46.6597 58.0991 27.1115 77.3583 27.1115 101.115C27.1115 102.518 27.1853 103.903 27.3182 105.271C15.9275 109.253 7.76784 119.957 7.76784 132.544C7.76784 148.524 20.9173 161.478 37.1374 161.478H58.4755H70.9046Z" fill="#CEE8FA"/>
<path d="M247.877 161.143C249.788 155.161 250.753 148.942 250.753 142.571C250.753 108.342 222.488 80.4953 187.744 80.4953C187.463 80.4953 187.184 80.5046 186.903 80.5083C184.855 51.5722 160.321 28.6425 130.439 28.6425C111.933 28.6425 94.7618 37.5255 84.218 52.1988C79.8573 51.035 75.3575 50.4469 70.7743 50.4469C42.6493 50.4469 19.7244 72.803 19.3484 100.426C7.57746 106.762 0 119.042 0 132.544C0 152.718 16.66 169.131 37.1374 169.131H63.9826C65.2683 172.128 68.4118 174.094 71.8786 173.764C76.149 173.361 79.2788 169.623 78.8696 165.415C78.7394 164.074 78.6729 162.752 78.6724 161.482C78.6724 161.48 78.6724 161.479 78.6724 161.477C78.6724 161.46 78.6724 161.44 78.6719 161.422C78.6719 161.043 78.6903 160.669 78.7009 160.293C78.7104 159.961 78.7109 159.628 78.7288 159.298C78.7483 158.934 78.7842 158.576 78.8127 158.214C78.839 157.883 78.857 157.549 78.8918 157.22C78.9282 156.867 78.9819 156.519 79.0278 156.169C79.0711 155.837 79.1069 155.502 79.1591 155.172C79.2129 154.831 79.282 154.495 79.3442 154.156C79.4049 153.823 79.4587 153.488 79.5278 153.157C79.5968 152.825 79.6823 152.499 79.7593 152.17C79.8378 151.839 79.9085 151.505 79.9945 151.177C80.0799 150.851 80.1811 150.531 80.2739 150.209C80.3678 149.884 80.4548 149.557 80.5566 149.237C80.6568 148.92 80.7718 148.61 80.8799 148.297C80.9911 147.975 81.0945 147.651 81.2132 147.334C81.326 147.033 81.4515 146.739 81.5712 146.441C81.7004 146.119 81.8228 145.794 81.9604 145.475C82.0864 145.183 82.2262 144.898 82.358 144.61C82.503 144.294 82.6423 143.974 82.7952 143.662C82.936 143.376 83.0889 143.098 83.2355 142.816C83.3948 142.51 83.5488 142.199 83.7154 141.897C83.8668 141.623 84.0318 141.357 84.1885 141.087C84.3646 140.784 84.5354 140.478 84.719 140.181C84.8787 139.922 85.0512 139.671 85.2168 139.417C85.4108 139.118 85.6007 138.815 85.8027 138.52C85.9746 138.271 86.1576 138.03 86.3348 137.784C86.5436 137.494 86.7482 137.199 86.9639 136.915C87.1448 136.677 87.3367 136.449 87.5223 136.215C87.7475 135.932 87.968 135.644 88.2005 135.368C88.3946 135.136 88.5997 134.915 88.7985 134.687C89.0348 134.419 89.2652 134.146 89.5078 133.882C89.7166 133.656 89.9365 133.44 90.1501 133.219C90.3948 132.965 90.6347 132.707 90.8863 132.46C91.1009 132.248 91.3261 132.047 91.545 131.84C91.8065 131.594 92.0639 131.342 92.3318 131.103C92.5501 130.907 92.7784 130.722 93.0015 130.531C93.281 130.292 93.5563 130.047 93.8421 129.815C94.0752 129.625 94.3183 129.446 94.5551 129.262C94.8403 129.041 95.1214 128.814 95.412 128.6C95.6699 128.41 95.9362 128.232 96.1988 128.048C96.4799 127.85 96.7567 127.648 97.0431 127.457C97.3025 127.285 97.5704 127.124 97.8336 126.957C98.1326 126.768 98.4279 126.573 98.7317 126.391C98.9927 126.235 99.2616 126.091 99.5264 125.94C99.8417 125.761 100.152 125.576 100.472 125.404C100.756 125.253 101.048 125.113 101.335 124.968C101.644 124.811 101.951 124.648 102.264 124.499C102.555 124.36 102.854 124.235 103.15 124.103C103.468 123.961 103.784 123.812 104.106 123.677C104.405 123.552 104.712 123.441 105.014 123.323C105.34 123.196 105.663 123.062 105.992 122.943C106.322 122.823 106.661 122.718 106.996 122.607C107.305 122.504 107.61 122.394 107.922 122.298C108.266 122.192 108.616 122.102 108.962 122.006C109.273 121.92 109.581 121.825 109.895 121.745C110.254 121.654 110.62 121.579 110.983 121.498C111.29 121.428 111.594 121.35 111.904 121.288C112.263 121.215 112.628 121.159 112.991 121.096C113.311 121.04 113.628 120.976 113.951 120.927C114.33 120.87 114.713 120.83 115.095 120.783C115.406 120.745 115.715 120.697 116.029 120.666C116.487 120.621 116.95 120.594 117.413 120.562C117.656 120.546 117.895 120.52 118.138 120.508C118.846 120.472 119.558 120.454 120.274 120.454C120.983 120.454 121.687 120.472 122.388 120.507C122.524 120.514 122.658 120.529 122.793 120.536C123.363 120.57 123.931 120.608 124.495 120.664C124.601 120.675 124.706 120.691 124.812 120.703C125.404 120.766 125.994 120.837 126.579 120.924C126.651 120.935 126.722 120.95 126.794 120.961C127.411 121.057 128.024 121.162 128.632 121.286C128.68 121.295 128.727 121.308 128.775 121.317C129.404 121.447 130.028 121.587 130.647 121.744C130.683 121.754 130.718 121.764 130.755 121.774C131.384 121.935 132.008 122.109 132.625 122.299C132.647 122.305 132.669 122.313 132.691 122.32C149.587 127.535 161.882 143.101 161.882 161.445C161.882 165.671 165.359 169.097 169.649 169.097C173.939 169.097 177.417 165.671 177.417 161.445C177.417 141.307 166.622 123.615 150.44 113.663C157.186 105.258 166.754 99.2728 177.392 96.9282C177.512 96.9022 177.63 96.8746 177.75 96.8492C178.548 96.6798 179.351 96.5302 180.159 96.4024C182.644 96.0065 185.178 95.7977 187.743 95.7977C213.92 95.7977 235.217 116.779 235.217 142.568C235.217 149.418 233.738 156.032 230.821 162.225C229.859 164.266 229.858 166.62 230.818 168.661C231.777 170.703 233.601 172.225 235.802 172.823C246.791 175.808 254.466 185.743 254.466 196.982C254.466 210.805 243.053 222.048 229.023 222.048H213.84C209.55 222.048 206.072 225.475 206.072 229.701C206.072 233.928 209.55 237.354 213.84 237.354H229.023C251.619 237.354 270.002 219.243 270.002 196.982C270.002 181.736 261.227 167.976 247.877 161.143ZM15.5351 132.544C15.5351 123.551 21.3133 115.49 29.9149 112.484C33.2735 111.31 35.3903 108.036 35.0502 104.541C34.9368 103.375 34.8793 102.222 34.8793 101.116C34.8793 81.6164 50.9819 65.7524 70.7748 65.7524C75.5442 65.7524 80.179 66.6616 84.5523 68.4545C88.2216 69.9591 92.4499 68.493 94.3541 65.0573C101.572 52.0362 115.399 43.9475 130.438 43.9475C152.473 43.9475 170.511 61.1244 171.481 82.6009C171.453 82.6087 171.427 82.617 171.399 82.6248C157.082 86.4128 144.452 95.0942 135.899 107.286C135.495 107.173 135.086 107.071 134.679 106.967C134.607 106.949 134.536 106.929 134.464 106.911C134.385 106.891 134.307 106.868 134.226 106.849C134.15 106.83 134.076 106.809 134 106.789C133.51 106.67 133.018 106.563 132.525 106.457C132.375 106.425 132.227 106.388 132.078 106.357C131.981 106.337 131.884 106.321 131.788 106.302C131.775 106.3 131.762 106.297 131.749 106.294C131.393 106.222 131.036 106.156 130.678 106.091C130.499 106.059 130.321 106.021 130.143 105.99C129.827 105.936 129.509 105.892 129.192 105.843C129.059 105.823 128.926 105.801 128.793 105.782C128.592 105.752 128.393 105.717 128.193 105.69C127.792 105.635 127.388 105.592 126.986 105.546C126.734 105.517 126.484 105.481 126.232 105.456C126.192 105.453 126.152 105.45 126.112 105.446C126.11 105.446 126.11 105.446 126.108 105.446C125.754 105.411 125.399 105.385 125.044 105.356C124.782 105.335 124.521 105.307 124.257 105.29C124.016 105.273 123.773 105.266 123.531 105.253C123.324 105.241 123.116 105.23 122.908 105.222C122.835 105.218 122.762 105.213 122.688 105.21C122.549 105.205 122.412 105.194 122.272 105.189C121.609 105.167 120.944 105.156 120.277 105.156C119.331 105.156 118.391 105.181 117.457 105.226C117.146 105.241 116.84 105.27 116.53 105.289C115.909 105.329 115.287 105.37 114.671 105.429C114.306 105.465 113.945 105.513 113.582 105.555C113.025 105.619 112.47 105.683 111.92 105.764C111.538 105.819 111.161 105.885 110.782 105.948C110.256 106.035 109.731 106.124 109.21 106.226C108.822 106.301 108.44 106.383 108.056 106.466C107.55 106.576 107.044 106.689 106.542 106.811C106.158 106.905 105.775 107.004 105.394 107.106C104.898 107.237 104.406 107.376 103.917 107.52C103.54 107.631 103.165 107.744 102.792 107.863C102.302 108.018 101.818 108.182 101.334 108.35C100.97 108.476 100.606 108.602 100.245 108.735C99.7573 108.916 99.2748 109.107 98.7934 109.3C98.4469 109.439 98.0999 109.575 97.7566 109.721C97.2603 109.931 96.7715 110.154 96.2832 110.378C95.9657 110.523 95.6446 110.664 95.3303 110.815C94.7976 111.07 94.2729 111.342 93.7493 111.614C93.4893 111.749 93.224 111.876 92.9661 112.015C92.1946 112.43 91.4337 112.861 90.6838 113.31C90.679 113.313 90.6738 113.315 90.669 113.318C89.9149 113.77 89.1729 114.241 88.4415 114.726C88.2005 114.886 87.9685 115.055 87.7301 115.219C87.2444 115.552 86.7598 115.884 86.2852 116.232C86.0073 116.436 85.7367 116.648 85.462 116.856C85.0385 117.178 84.6161 117.499 84.2027 117.832C83.9169 118.062 83.639 118.299 83.3574 118.534C82.9666 118.861 82.5785 119.188 82.1967 119.525C81.9145 119.774 81.6382 120.028 81.3608 120.283C80.9932 120.621 80.6283 120.961 80.2703 121.307C79.9971 121.571 79.7281 121.839 79.4603 122.108C79.1106 122.461 78.7657 122.817 78.4251 123.178C78.1651 123.455 77.9062 123.732 77.6514 124.014C77.3166 124.382 76.9891 124.758 76.6643 125.135C76.4196 125.42 76.1749 125.705 75.9355 125.995C75.6122 126.386 75.2979 126.785 74.9857 127.185C74.7611 127.473 74.5338 127.759 74.3144 128.051C73.9969 128.474 73.6916 128.905 73.3852 129.337C73.1864 129.618 72.9828 129.895 72.7893 130.18C72.4597 130.663 72.1459 131.157 71.8316 131.65C71.6771 131.893 71.5152 132.131 71.3639 132.377C70.9151 133.108 70.4806 133.848 70.065 134.6C70.0571 134.615 70.0487 134.628 70.0402 134.642C69.6168 135.409 69.2139 136.187 68.8263 136.975C68.7013 137.229 68.5879 137.488 68.4671 137.744C68.2124 138.282 67.9593 138.82 67.7215 139.367C67.5849 139.681 67.4599 140.001 67.3286 140.319C67.1229 140.817 66.9183 141.314 66.7274 141.819C66.5977 142.162 66.4775 142.51 66.3535 142.855C66.1795 143.344 66.0071 143.833 65.8462 144.328C65.7292 144.689 65.6195 145.053 65.5093 145.417C65.3616 145.906 65.2182 146.396 65.0837 146.89C64.9819 147.263 64.8854 147.638 64.7915 148.015C64.6681 148.51 64.5516 149.006 64.4414 149.506C64.3575 149.886 64.2768 150.267 64.2004 150.65C64.1002 151.157 64.0095 151.667 63.9225 152.179C63.8581 152.56 63.7933 152.941 63.7368 153.324C63.7121 153.494 63.6788 153.66 63.6546 153.831H37.1374C25.2262 153.826 15.5351 144.279 15.5351 132.544Z" fill="#2D527C"/>
</g>
<defs>
<clipPath id="clip0_10_132">
<rect width="270" height="266" fill="white"/>
</clipPath>
</defs>
</svg>
