<svg width="96" height="98" viewBox="0 0 96 98" fill="none" xmlns="http://www.w3.org/2000/svg">
<path d="M74.6141 30.3752C65.4261 39.7547 48.3032 37.4823 48.3032 37.4823C48.3032 37.4823 46.0772 20.0027 55.2652 10.6232C64.4533 1.24376 81.5762 3.51613 81.5762 3.51613C81.5762 3.51613 83.8022 20.9957 74.6141 30.3752Z" fill="#CEE8FA"/>
<path d="M21.3854 30.3752C30.5734 39.7547 47.6963 37.4823 47.6963 37.4823C47.6963 37.4823 49.9223 20.0027 40.7342 10.6232C31.5462 1.24376 14.4233 3.51613 14.4233 3.51613C14.4233 3.51613 12.1973 20.9957 21.3854 30.3752Z" fill="#CEE8FA"/>
<path d="M85.5626 34.8639H74.4026C75.2679 34.2087 76.1001 33.4894 76.8819 32.6908C87.069 22.2916 84.8559 3.87349 84.7566 3.09446C84.5689 1.62102 83.4328 0.461289 81.9894 0.269691C81.9069 0.258398 79.926 0 76.9747 0C71.0597 0 60.0784 1.07915 52.9972 8.30818C50.805 10.5461 49.1882 13.1557 47.9998 15.8808C46.8114 13.1555 45.1946 10.5461 43.0024 8.30818C35.9211 1.07915 24.9399 0 19.0245 0C16.0734 0 14.0925 0.258398 14.0094 0.2695C12.5661 0.461098 11.43 1.62083 11.2423 3.09427C11.1429 3.8733 8.93006 22.2912 19.1169 32.6908C19.8992 33.4894 20.7309 34.2087 21.5962 34.8639H10.4366C8.66512 34.8639 7.22925 36.3297 7.22925 38.1381V56.5043C7.22925 58.3127 8.66512 59.7785 10.4366 59.7785H12.9679L17.4705 95.1477C17.6781 96.7792 19.0395 97.9998 20.6512 97.9998H75.3486C76.9599 97.9998 78.3216 96.7788 78.5293 95.1477L83.0319 59.7785H85.5632C87.3347 59.7785 88.7706 58.3125 88.7706 56.5043V38.1381C88.7702 36.3299 87.3341 34.8639 85.5626 34.8639ZM57.5332 12.9385C62.9797 7.37852 72.0518 6.54839 76.9747 6.54839C77.556 6.54839 78.0919 6.55987 78.573 6.57748C78.7404 11.4627 78.3231 21.9587 72.3461 28.0598C66.9 33.6197 57.8276 34.4499 52.9046 34.4499C52.3234 34.4499 51.7875 34.4384 51.3064 34.4208C51.1389 29.5357 51.5563 19.0401 57.5332 12.9385ZM17.4262 6.57768C17.9074 6.56007 18.4432 6.54858 19.0245 6.54858C23.9475 6.54858 33.0195 7.37852 38.466 12.9387C44.4437 19.0405 44.8607 29.5386 44.6932 34.421C44.2121 34.4386 43.6759 34.4501 43.095 34.4501C38.172 34.4501 29.0996 33.6197 23.6535 28.06C17.6758 21.9581 17.2588 11.4603 17.4262 6.57768ZM72.531 91.4514H23.4688L19.4368 59.7783H52.1944C53.9659 59.7783 55.4017 58.3123 55.4017 56.5041C55.4017 54.6957 53.9657 53.2299 52.1944 53.2299H13.644V41.4121H82.3556V53.2299H72.4854C70.7139 53.2299 69.2781 54.6957 69.2781 56.5041C69.2781 58.3125 70.7139 59.7783 72.4854 59.7783H76.5634L72.531 91.4514Z" fill="#2D527C"/>
</svg>
