<svg width="694" height="581" viewBox="0 0 694 581" fill="none" xmlns="http://www.w3.org/2000/svg">
<path d="M345.953 168.729C345.953 168.729 257.032 176.149 210.471 143.666C163.91 111.182 174.546 49.1465 174.546 49.1465C174.546 49.1465 263.468 41.726 310.03 74.2094C356.592 106.693 345.953 168.729 345.953 168.729Z" stroke="#030B00" stroke-width="13.25" stroke-linecap="round" stroke-linejoin="round"/>
<path d="M348.047 168.729C348.047 168.729 436.968 176.149 483.53 143.666C530.092 111.182 519.453 49.1465 519.453 49.1465C519.453 49.1465 430.532 41.726 383.97 74.2094C337.408 106.693 348.047 168.729 348.047 168.729Z" stroke="#030B00" stroke-width="13.25" stroke-linecap="round" stroke-linejoin="round"/>
<path d="M115.667 266.292C115.667 252.921 128.613 242.083 144.583 242.083H549.417C565.387 242.083 578.333 252.921 578.333 266.292V314.708C578.333 328.079 565.387 338.917 549.417 338.917H144.583C128.613 338.917 115.667 328.079 115.667 314.708V266.292Z" stroke="#030B00" stroke-width="13.25" stroke-linecap="round" stroke-linejoin="round"/>
<path d="M144.583 338.917H549.417L491.583 532.583H202.417L144.583 338.917Z" stroke="#030B00" stroke-width="13.25" stroke-linecap="round" stroke-linejoin="round"/>
</svg>
